<?xml version="1.0" standalone="no"?><!-- Generator: Gravit.io --><svg xmlns="http://www.w3.org/2000/svg" xmlns:xlink="http://www.w3.org/1999/xlink" style="isolation:isolate" viewBox="0 0 244.73 244.73" width="244.73" height="244.73"><defs><clipPath id="_clipPath_XTdYN0G6yJL8HleMoJqIlJUMT1K9NM7H"><rect width="244.73" height="244.73"/></clipPath></defs><g clip-path="url(#_clipPath_XTdYN0G6yJL8HleMoJqIlJUMT1K9NM7H)"><path d=" M 180.555 170.874 L 131.948 53.797 C 130.551 50.404 127.756 48.607 124.462 48.607 C 121.069 48.607 118.075 50.404 116.677 53.797 L 63.279 182.252 L 81.544 182.252 L 102.704 129.353 L 165.784 180.256 C 168.279 182.352 170.175 183.25 172.571 183.25 C 177.362 183.25 181.454 179.657 181.454 174.567 C 181.454 173.669 181.154 172.271 180.555 170.874 Z  M 124.462 74.857 L 156.102 152.908 L 108.293 115.28 L 124.462 74.857 Z " fill="rgb(255,255,255)"/><path d=" M 244.733 122.366 C 244.733 189.938 189.938 244.733 122.366 244.733 C 54.795 244.733 0 189.938 0 122.366 C 0 54.795 54.795 0 122.366 0 C 189.938 0 244.733 54.795 244.733 122.366 Z " fill="rgb(204,0,0)"/><path d=" M 180.655 172.67 L 131.948 55.494 C 130.551 52.101 127.756 50.304 124.363 50.304 C 120.969 50.304 117.975 52.101 116.578 55.494 L 63.179 184.049 L 81.445 184.049 L 102.604 131.05 L 165.784 182.053 C 168.279 184.149 170.175 185.047 172.571 185.047 C 177.362 185.047 181.554 181.454 181.554 176.264 C 181.554 175.465 181.254 174.168 180.655 172.67 Z  M 124.462 76.554 L 156.102 154.705 L 108.293 116.977 L 124.462 76.554 L 124.462 76.554 Z " fill="rgb(255,255,255)"/></g></svg>